Coordinates
version=1
nRows=29
nColumns=24
inDegrees=yes

Units are S.I. units (second, meters, Newtons, ...)
Angles are in degrees.

endheader
time	pelvis_tilt	pelvis_list	pelvis_rotation	pelvis_tx	pelvis_ty	pelvis_tz	hip_flexion_r	hip_adduction_r	hip_rotation_r	knee_angle_r	ankle_angle_r	subtalar_angle_r	mtp_angle_r	hip_flexion_l	hip_adduction_l	hip_rotation_l	knee_angle_l	ankle_angle_l	subtalar_angle_l	mtp_angle_l	lumbar_extension	lumbar_bending	lumbar_rotation
      3.63500000	    -10.58404255	      4.56378380	     -2.46575903	     -2.22521943	     -0.01413408	     -0.66691427	     19.91523758	     -7.07499735	     -3.69547538	    -62.48622000	    -14.16864854	    -17.60644154	      0.02508035	     24.96824769	      6.02204367	    -13.81382842	    -20.57881784	      2.02600475	     -9.64659952	      2.26508752	      7.37376622	     -5.09433143	      1.05382573
      3.64000000	    -10.71030069	      4.49548095	     -2.34438095	     -2.22042186	     -0.01361514	     -0.66764782	     20.90621334	     -7.04012308	     -3.76354284	    -63.37949337	    -13.39243193	    -17.69456892	     -1.62848688	     24.63619714	      6.10126348	    -13.61465016	    -20.29873920	      2.09779090	     -9.72675842	      2.55032438	      7.43970124	     -5.01328229	      0.84518131
      3.64500000	    -10.72100142	      4.43275611	     -2.25420447	     -2.21557920	     -0.01292590	     -0.66838866	     21.73242822	     -7.01768757	     -3.79741875	    -64.07084802	    -13.04430574	    -18.06099591	     -1.61363840	     24.15085608	      6.18165406	    -13.47534757	    -19.98778041	      2.28892817	     -9.66922330	      2.58145383	      7.39422135	     -4.92935790	      0.65405527
      3.65000000	    -10.87156908	      4.34583781	     -2.15233565	     -2.21086094	     -0.01242051	     -0.66909019	     22.72070151	     -6.94042284	     -3.80881596	    -64.72141293	    -12.64532361	    -18.34241945	     -1.69442707	     23.84991157	      6.22446898	    -13.30589960	    -19.72503541	      2.46162357	     -9.63828113	      2.54621827	      7.48437169	     -4.82160250	      0.45322816
      3.65500000	    -10.90389849	      4.28497768	     -2.04325896	     -2.20605348	     -0.01178639	     -0.66977690	     23.53870862	     -6.90848656	     -3.85001126	    -65.26054535	    -12.21584492	    -18.57663403	     -1.67493122	     23.38940520	      6.30214338	    -13.16737213	    -19.41312164	      2.64442705	     -9.55741547	      2.52424510	      7.46466317	     -4.74787524	      0.25215152
      3.66000000	    -10.97687952	      4.21488417	     -1.94272946	     -2.20126223	     -0.01121046	     -0.67044904	     24.39660956	     -6.85312704	     -3.86888549	    -65.73196049	    -11.79293672	    -18.72688656	     -1.60462032	     22.96829170	      6.36687994	    -12.99743097	    -19.09344954	      2.83716568	     -9.49545235	      2.45440168	      7.49282866	     -4.65852838	      0.07435817
      3.66500000	    -10.97405827	      4.15587134	     -1.83950058	     -2.19643726	     -0.01055592	     -0.67109882	     25.14020616	     -6.81510220	     -3.91243222	    -66.10086666	    -11.36922274	    -18.90565710	     -1.48061643	     22.44841398	      6.44293276	    -12.85961908	    -18.74459566	      3.01956484	     -9.40283338	      2.44680471	      7.44621701	     -4.58653173	     -0.09488145
      3.67000000	    -10.99113269	      4.10525549	     -1.72293518	     -2.19162400	     -0.00994511	     -0.67174910	     25.88822797	     -6.78505273	     -3.94890695	    -66.39639062	    -10.89719363	    -18.98243207	     -1.25471764	     21.94884813	      6.52880379	    -12.71887328	    -18.38917374	      3.19632889	     -9.30614546	      2.41769047	      7.42235629	     -4.52311278	     -0.28546874
      3.67500000	    -11.00582942	      4.04613256	     -1.63613615	     -2.18680086	     -0.00932275	     -0.67237459	     26.60672186	     -6.72157512	     -3.92170946	    -66.57866944	    -10.44044777	    -18.99324848	     -0.50405918	     21.43532185	      6.60404673	    -12.53552788	    -18.01957705	      3.35921136	     -9.27622809	      2.19473946	      7.40428450	     -4.44164500	     -0.43873548
      3.68000000	    -10.98158841	      4.00019993	     -1.52965120	     -2.18193828	     -0.00864921	     -0.67291638	     27.26398051	     -6.68043064	     -3.97619422	    -66.69148564	    -10.01108475	    -19.14894839	     -0.33652335	     20.86400178	      6.68027663	    -12.41112329	    -17.62092424	      3.50669973	     -9.12607636	      2.21132594	      7.35414790	     -4.39157156	     -0.62010388
      3.68500000	    -10.84258464	      3.95337023	     -1.42158207	     -2.17701997	     -0.00785859	     -0.67359563	     27.73508870	     -6.66449052	     -3.99343234	    -66.64575641	     -9.61271104	    -19.17577463	      1.02083461	     20.14619763	      6.77981698	    -12.28794403	    -17.18530955	      3.66097395	     -9.05248577	      2.06235144	      7.18102918	     -4.32599547	     -0.81614688
      3.69000000	    -10.82437221	      3.87722218	     -1.28391455	     -2.17215301	     -0.00725371	     -0.67419025	     28.34187059	     -6.61012995	     -4.07792867	    -66.59744793	     -9.07379870	    -19.13842372	      1.27200909	     19.58830632	      6.82821641	    -12.14331266	    -16.80513505	      3.85262119	     -8.88156174	      2.11215384	      7.13799084	     -4.24297628	     -1.02763539
      3.69500000	    -10.65244845	      3.79125942	     -1.20439271	     -2.16720269	     -0.00640167	     -0.67473228	     28.72258339	     -6.51591007	     -4.09023290	    -66.38054835	     -8.59245936	    -19.10381558	      2.11271719	     18.81729833	      6.86055446	    -12.02778551	    -16.34242881	      3.95839892	     -8.78106398	      2.13956716	      6.94076552	     -4.13842666	     -1.18970232
      3.70000000	    -10.61312164	      3.71557520	     -1.04426258	     -2.16229538	     -0.00577864	     -0.67533444	     29.24203960	     -6.47920442	     -4.20719352	    -66.14937217	     -8.03087805	    -19.03039173	      2.43806415	     18.22863061	      6.90700788	    -11.91202022	    -15.94648886	      4.10601804	     -8.58665741	      2.19895932	      6.88258463	     -4.05921745	     -1.44631161
      3.70500000	    -10.41456042	      3.62830744	     -0.96612538	     -2.15734415	     -0.00494676	     -0.67586861	     29.55075200	     -6.39501027	     -4.25930920	    -65.77387258	     -7.59328935	    -19.05811050	      3.16388437	     17.42214156	      6.93024898	    -11.80355240	    -15.47094240	      4.21797028	     -8.46033791	      2.29189911	      6.66137592	     -3.94926289	     -1.59593454
      3.71000000	    -10.38275144	      3.52965101	     -0.82827194	     -2.15245206	     -0.00437924	     -0.67645199	     30.03569660	     -6.32947270	     -4.37706484	    -65.38379004	     -7.04617011	    -18.95765115	      3.40207312	     16.83930145	      6.94095983	    -11.66907615	    -15.07150510	      4.38358892	     -8.28022966	      2.36033425	      6.61576137	     -3.83685152	     -1.81269433
      3.71500000	    -10.24877521	      3.42322321	     -0.70752282	     -2.14754140	     -0.00367281	     -0.67700772	     30.36373606	     -6.24763620	     -4.48521281	    -64.87502227	     -6.52590434	    -18.88202283	      3.68139083	     16.13120638	      6.93792479	    -11.57661948	    -14.64333698	      4.50258102	     -8.10042339	      2.42541597	      6.45759615	     -3.70966398	     -2.03092105
      3.72000000	    -10.12240704	      3.31757858	     -0.59904388	     -2.14264307	     -0.00301548	     -0.67754772	     30.68383771	     -6.16596888	     -4.60103307	    -64.29335983	     -6.06892671	    -18.87547136	      3.91712590	     15.43040402	      6.93001905	    -11.47212769	    -14.21236310	      4.63424422	     -7.92518815	      2.49884990	      6.31078563	     -3.57798746	     -2.22337697
      3.72500000	    -10.01425050	      3.20988610	     -0.48915470	     -2.13776724	     -0.00241999	     -0.67808179	     31.00205342	     -6.08624643	     -4.72848549	    -63.63974068	     -5.63743376	    -18.89253919	      4.08812228	     14.75700540	      6.91526572	    -11.36775730	    -13.79161518	      4.76820680	     -7.74806349	      2.56943985	      6.17969159	     -3.44506469	     -2.41669174
      3.73000000	     -9.93801628	      3.10535681	     -0.38426063	     -2.13289995	     -0.00192593	     -0.67859684	     31.33971581	     -6.01028775	     -4.86158444	    -62.92675972	     -5.23610646	    -18.93111771	      4.17626375	     14.12317561	      6.89969003	    -11.24286822	    -13.38065329	      4.92904138	     -7.58361353	      2.63067742	      6.08427458	     -3.31163273	     -2.58945673
      3.73500000	     -9.84525306	      2.99643513	     -0.26538741	     -2.12804390	     -0.00143032	     -0.67912790	     31.62283040	     -5.94099293	     -5.01786435	    -62.12441906	     -4.86492585	    -19.00124038	      4.20725303	     13.47946466	      6.87799287	    -11.13310544	    -12.98003078	      5.06694223	     -7.40367218	      2.67987439	      5.96955090	     -3.17400515	     -2.79469049
      3.74000000	     -9.74348931	      2.89139820	     -0.14807344	     -2.12319604	     -0.00096803	     -0.67964603	     31.86862135	     -5.87741682	     -5.18541915	    -61.24492937	     -4.53074846	    -19.12134001	      4.16243314	     12.83480165	      6.85524108	    -11.05651843	    -12.59070343	      5.19188463	     -7.22855889	      2.71998576	      5.84271059	     -3.03799567	     -3.01136134
      3.74500000	     -9.67664073	      2.79170515	     -0.03174987	     -2.11834725	     -0.00061451	     -0.68016093	     32.13270956	     -5.82289740	     -5.35914468	    -60.30535083	     -4.22510908	    -19.25167277	      4.04529490	     12.23370016	      6.83574950	    -10.95785373	    -12.21270890	      5.33832308	     -7.06330165	      2.75518987	      5.75514054	     -2.90653274	     -3.21226193
      3.75000000	     -9.63619986	      2.70067983	      0.08193369	     -2.11348764	     -0.00036453	     -0.68067273	     32.40453225	     -5.78088361	     -5.53837070	    -59.30440256	     -3.95742141	    -19.40206171	      3.87605108	     11.66495548	      6.82340530	    -10.83621609	    -11.84474225	      5.50892926	     -6.91269705	      2.78493005	      5.70081974	     -2.77946035	     -3.39589028
      3.75500000	     -9.57817379	      2.61491476	      0.21475204	     -2.10863868	     -0.00013538	     -0.68120767	     32.62360188	     -5.76072001	     -5.75298160	    -58.22688030	     -3.72780627	    -19.60083447	      3.60216400	     11.08605742	      6.81668085	    -10.73304684	    -11.48869909	      5.66231606	     -6.74831398	      2.80039847	      5.62315533	     -2.65914833	     -3.61824347
      3.76000000	     -9.47068044	      2.57660930	      0.31154784	     -2.10379049	      0.00007098	     -0.68169351	     32.78060211	     -5.77437793	     -5.94492004	    -57.11633819	     -3.45719807	    -19.74531363	      2.87740716	     10.45074290	      6.85025996	    -10.72181268	    -11.12341559	      5.80977904	     -6.55410245	      2.79233636	      5.49132028	     -2.57859320	     -3.81581622
      3.76500000	     -9.50154192	      2.50447763	      0.46844683	     -2.09896062	      0.00007453	     -0.68220171	     33.04504749	     -5.78000033	     -6.19394040	    -55.91425444	     -3.28822177	    -19.98862993	      2.39849095	      9.99964855	      6.85173349	    -10.59117244	    -10.82411019	      5.96371506	     -6.42033262	      2.80430179	      5.50640531	     -2.47911968	     -4.05268090
      3.77000000	     -9.43156828	      2.46920729	      0.55650815	     -2.09407875	      0.00009986	     -0.68262443	     33.18995403	     -5.79017619	     -6.40450103	    -54.69451844	     -2.98778358	    -20.05193347	      1.13716258	      9.41169649	      6.87846903	    -10.52746817	    -10.48437026	      6.15936795	     -6.23630139	      2.79731696	      5.42178671	     -2.40266854	     -4.18292854
      3.77500000	     -9.53200990	      2.43623071	      0.71658073	     -2.08926180	     -0.00010405	     -0.68314170	     33.49219598	     -5.85394242	     -6.67981302	    -53.37606975	     -2.99142777	    -20.37271945	      0.76901525	      9.05049778	      6.92062665	    -10.41522447	    -10.20336854	      6.29933957	     -6.14467468	      2.81495421	      5.51117718	     -2.34025265	     -4.44250864
